<svg xmlns="http://www.w3.org/2000/svg" width="1600" height="900" viewBox="0 0 1600 900" fill="none">
  <rect width="1600" height="900" fill="#FFFFFF"/>
  <text x="800" y="110" text-anchor="middle" font-family="Inter, Arial, sans-serif" font-size="64" font-weight="700" fill="#1F2933">How a Computer Runs Code</text>

  <g stroke="#1F2933" stroke-width="8" stroke-linecap="round" stroke-linejoin="round">
    <line x1="365" y1="392" x2="450" y2="392"/>
    <polygon points="450,392 430,378 430,406" fill="#1F2933" stroke="none"/>
    <line x1="785" y1="392" x2="870" y2="392"/>
    <polygon points="870,392 850,378 850,406" fill="#1F2933" stroke="none"/>
    <line x1="1205" y1="392" x2="1290" y2="392"/>
    <polygon points="1290,392 1270,378 1270,406" fill="#1F2933" stroke="none"/>
    <line x1="215" y1="780" x2="1385" y2="780"/>
    <polygon points="1385,780 1366,766 1366,794" fill="#1F2933" stroke="none"/>
  </g>

  <g transform="translate(70 250)">
    <rect x="0" y="0" width="220" height="270" rx="16" fill="#6B7280" stroke="#1F2933" stroke-width="6"/>
    <rect x="32" y="25" width="156" height="156" rx="78" fill="#F3F4F6" stroke="#1F2933" stroke-width="5"/>
    <circle cx="110" cy="103" r="30" fill="none" stroke="#1F2933" stroke-width="5"/>
    <circle cx="110" cy="103" r="8" fill="#1F2933"/>
    <path d="M88 168 L56 200 L69 213 L101 181" fill="#D1D5DB" stroke="#1F2933" stroke-width="5"/>
    <rect x="18" y="20" width="10" height="10" rx="5" fill="#F9FAFB" stroke="#1F2933" stroke-width="4"/>
    <rect x="192" y="20" width="10" height="10" rx="5" fill="#F9FAFB" stroke="#1F2933" stroke-width="4"/>
    <rect x="18" y="240" width="10" height="10" rx="5" fill="#F9FAFB" stroke="#1F2933" stroke-width="4"/>
    <rect x="192" y="240" width="10" height="10" rx="5" fill="#F9FAFB" stroke="#1F2933" stroke-width="4"/>
  </g>

  <g transform="translate(455 325)">
    <rect x="0" y="0" width="320" height="140" rx="10" fill="#3E8E41" stroke="#1F2933" stroke-width="6"/>
    <rect x="38" y="20" width="54" height="100" rx="6" fill="#2F3E4D" stroke="#1F2933" stroke-width="4"/>
    <rect x="108" y="20" width="54" height="100" rx="6" fill="#2F3E4D" stroke="#1F2933" stroke-width="4"/>
    <rect x="178" y="20" width="54" height="100" rx="6" fill="#2F3E4D" stroke="#1F2933" stroke-width="4"/>
    <rect x="248" y="20" width="54" height="100" rx="6" fill="#2F3E4D" stroke="#1F2933" stroke-width="4"/>
    <g fill="#FBBF24">
      <rect x="16" y="125" width="10" height="12" rx="2"/>
      <rect x="30" y="125" width="10" height="12" rx="2"/>
      <rect x="44" y="125" width="10" height="12" rx="2"/>
      <rect x="58" y="125" width="10" height="12" rx="2"/>
      <rect x="72" y="125" width="10" height="12" rx="2"/>
      <rect x="86" y="125" width="10" height="12" rx="2"/>
      <rect x="100" y="125" width="10" height="12" rx="2"/>
      <rect x="114" y="125" width="10" height="12" rx="2"/>
      <rect x="128" y="125" width="10" height="12" rx="2"/>
      <rect x="142" y="125" width="10" height="12" rx="2"/>
      <rect x="156" y="125" width="10" height="12" rx="2"/>
      <rect x="170" y="125" width="10" height="12" rx="2"/>
      <rect x="184" y="125" width="10" height="12" rx="2"/>
      <rect x="198" y="125" width="10" height="12" rx="2"/>
      <rect x="212" y="125" width="10" height="12" rx="2"/>
      <rect x="226" y="125" width="10" height="12" rx="2"/>
      <rect x="240" y="125" width="10" height="12" rx="2"/>
      <rect x="254" y="125" width="10" height="12" rx="2"/>
      <rect x="268" y="125" width="10" height="12" rx="2"/>
      <rect x="282" y="125" width="10" height="12" rx="2"/>
      <rect x="296" y="125" width="10" height="12" rx="2"/>
    </g>
  </g>

  <g transform="translate(920 280)">
    <rect x="0" y="0" width="240" height="240" rx="18" fill="#5B8DB8" stroke="#1F2933" stroke-width="6"/>
    <rect x="48" y="48" width="144" height="144" rx="18" fill="#2F3E4D" stroke="#1F2933" stroke-width="6"/>
    <text x="120" y="134" text-anchor="middle" font-family="Inter, Arial, sans-serif" font-size="34" font-weight="700" fill="#FFFFFF">CACHE</text>
    <g fill="#F8FAFC">
      <rect x="36" y="12" width="6" height="28" rx="3"/>
      <rect x="64" y="12" width="6" height="28" rx="3"/>
      <rect x="92" y="12" width="6" height="28" rx="3"/>
      <rect x="120" y="12" width="6" height="28" rx="3"/>
      <rect x="148" y="12" width="6" height="28" rx="3"/>
      <rect x="176" y="12" width="6" height="28" rx="3"/>
      <rect x="36" y="200" width="6" height="28" rx="3"/>
      <rect x="64" y="200" width="6" height="28" rx="3"/>
      <rect x="92" y="200" width="6" height="28" rx="3"/>
      <rect x="120" y="200" width="6" height="28" rx="3"/>
      <rect x="148" y="200" width="6" height="28" rx="3"/>
      <rect x="176" y="200" width="6" height="28" rx="3"/>
      <rect x="12" y="36" width="28" height="6" rx="3"/>
      <rect x="12" y="64" width="28" height="6" rx="3"/>
      <rect x="12" y="92" width="28" height="6" rx="3"/>
      <rect x="12" y="120" width="28" height="6" rx="3"/>
      <rect x="12" y="148" width="28" height="6" rx="3"/>
      <rect x="12" y="176" width="28" height="6" rx="3"/>
      <rect x="200" y="36" width="28" height="6" rx="3"/>
      <rect x="200" y="64" width="28" height="6" rx="3"/>
      <rect x="200" y="92" width="28" height="6" rx="3"/>
      <rect x="200" y="120" width="28" height="6" rx="3"/>
      <rect x="200" y="148" width="28" height="6" rx="3"/>
      <rect x="200" y="176" width="28" height="6" rx="3"/>
    </g>
  </g>

  <g transform="translate(1320 280)">
    <rect x="0" y="0" width="240" height="240" rx="24" fill="#6B7280" stroke="#1F2933" stroke-width="6"/>
    <rect x="34" y="34" width="172" height="172" rx="16" fill="#D1D5DB" stroke="#1F2933" stroke-width="6"/>
    <text x="120" y="145" text-anchor="middle" font-family="Inter, Arial, sans-serif" font-size="44" font-weight="700" fill="#1F2933">CPU</text>
    <g fill="#D4A62A">
      <rect x="40" y="-10" width="8" height="28" rx="4"/>
      <rect x="70" y="-10" width="8" height="28" rx="4"/>
      <rect x="100" y="-10" width="8" height="28" rx="4"/>
      <rect x="130" y="-10" width="8" height="28" rx="4"/>
      <rect x="160" y="-10" width="8" height="28" rx="4"/>
      <rect x="190" y="-10" width="8" height="28" rx="4"/>
      <rect x="40" y="222" width="8" height="28" rx="4"/>
      <rect x="70" y="222" width="8" height="28" rx="4"/>
      <rect x="100" y="222" width="8" height="28" rx="4"/>
      <rect x="130" y="222" width="8" height="28" rx="4"/>
      <rect x="160" y="222" width="8" height="28" rx="4"/>
      <rect x="190" y="222" width="8" height="28" rx="4"/>
      <rect x="-10" y="40" width="28" height="8" rx="4"/>
      <rect x="-10" y="70" width="28" height="8" rx="4"/>
      <rect x="-10" y="100" width="28" height="8" rx="4"/>
      <rect x="-10" y="130" width="28" height="8" rx="4"/>
      <rect x="-10" y="160" width="28" height="8" rx="4"/>
      <rect x="-10" y="190" width="28" height="8" rx="4"/>
      <rect x="222" y="40" width="28" height="8" rx="4"/>
      <rect x="222" y="70" width="28" height="8" rx="4"/>
      <rect x="222" y="100" width="28" height="8" rx="4"/>
      <rect x="222" y="130" width="28" height="8" rx="4"/>
      <rect x="222" y="160" width="28" height="8" rx="4"/>
      <rect x="222" y="190" width="28" height="8" rx="4"/>
    </g>
  </g>

  <g font-family="Inter, Arial, sans-serif" fill="#1F2933" text-anchor="middle">
    <text x="180" y="620" font-size="36" font-weight="700">Disk Storage</text>
    <text x="180" y="662" font-size="28">(HDD / SSD)</text>
    <text x="620" y="620" font-size="36" font-weight="700">RAM</text>
    <text x="620" y="662" font-size="28">(Main Memory)</text>
    <text x="1040" y="620" font-size="36" font-weight="700">Cache</text>
    <text x="1040" y="662" font-size="28">(L1 / L2 / L3)</text>
    <text x="1440" y="620" font-size="36" font-weight="700">CPU</text>
    <text x="1440" y="662" font-size="28">(Processor)</text>
    <text x="400" y="836" font-size="28">Slower &amp; Larger Capacity</text>
    <text x="1240" y="836" font-size="28">Faster &amp; Smaller Capacity</text>
  </g>
</svg>
