<svg xmlns="http://www.w3.org/2000/svg" width="946" height="674" viewBox="0 0 946 674" role="img" aria-labelledby="title desc">
  <title id="title">Machine Learning</title>
  <desc id="desc">Three panels comparing unsupervised learning, supervised learning, and reinforcement learning.</desc>
  <rect width="946" height="674" fill="#ffffff"/>
  <text x="473" y="108" text-anchor="middle" font-family="Arial, Helvetica, sans-serif" font-size="68" font-weight="400" fill="#050505">Machine Learning</text>

  <g transform="translate(59 240)">
    <rect width="216" height="216" fill="#888888"/>
    <g fill="#6bd3cd">
      <circle cx="61" cy="79" r="4"/><circle cx="58" cy="61" r="4"/><circle cx="73" cy="65" r="4"/><circle cx="51" cy="90" r="4"/>
      <circle cx="68" cy="91" r="4"/><circle cx="83" cy="92" r="4"/><circle cx="62" cy="104" r="4"/><circle cx="76" cy="105" r="4"/>
      <circle cx="51" cy="75" r="4"/><circle cx="88" cy="81" r="4"/><circle cx="69" cy="48" r="4"/><circle cx="81" cy="114" r="4"/>
      <circle cx="44" cy="83" r="4"/>
    </g>
    <g fill="#ffd83d">
      <circle cx="141" cy="72" r="4"/><circle cx="155" cy="69" r="4"/><circle cx="169" cy="62" r="4"/><circle cx="154" cy="87" r="4"/>
      <circle cx="169" cy="85" r="4"/><circle cx="183" cy="88" r="4"/><circle cx="138" cy="97" r="4"/><circle cx="152" cy="101" r="4"/>
      <circle cx="166" cy="100" r="4"/><circle cx="178" cy="105" r="4"/><circle cx="143" cy="115" r="4"/><circle cx="158" cy="118" r="4"/>
      <circle cx="173" cy="119" r="4"/><circle cx="151" cy="132" r="4"/><circle cx="165" cy="132" r="4"/><circle cx="185" cy="75" r="4"/>
      <circle cx="133" cy="83" r="4"/><circle cx="190" cy="99" r="4"/>
    </g>
    <g fill="#ff7f5f">
      <circle cx="78" cy="151" r="4"/><circle cx="92" cy="148" r="4"/><circle cx="105" cy="145" r="4"/><circle cx="68" cy="164" r="4"/>
      <circle cx="83" cy="164" r="4"/><circle cx="98" cy="163" r="4"/><circle cx="113" cy="164" r="4"/><circle cx="75" cy="178" r="4"/>
      <circle cx="90" cy="177" r="4"/><circle cx="105" cy="178" r="4"/><circle cx="122" cy="185" r="4"/><circle cx="89" cy="188" r="4"/>
      <circle cx="59" cy="150" r="4"/><circle cx="113" cy="134" r="4"/>
    </g>
    <text x="108" y="274" text-anchor="middle" font-family="Arial, Helvetica, sans-serif" font-size="32" fill="#050505">
      <tspan x="108" dy="0">Unsupervised</tspan>
      <tspan x="108" dy="35">Learning</tspan>
    </text>
  </g>

  <g transform="translate(360 240)">
    <rect width="216" height="216" fill="#888888"/>
    <line x1="0" y1="216" x2="216" y2="0" stroke="#ff7f5f" stroke-width="5"/>
    <g fill="#6bd3cd">
      <circle cx="19" cy="120" r="6"/><circle cx="39" cy="64" r="6"/><circle cx="40" cy="88" r="6"/><circle cx="62" cy="96" r="6"/>
      <circle cx="62" cy="63" r="6"/><circle cx="78" cy="40" r="6"/><circle cx="78" cy="79" r="6"/><circle cx="91" cy="100" r="6"/>
      <circle cx="99" cy="35" r="6"/><circle cx="115" cy="58" r="6"/><circle cx="133" cy="20" r="6"/>
    </g>
    <g fill="#ffd83d">
      <circle cx="77" cy="168" r="6"/><circle cx="107" cy="145" r="6"/><circle cx="111" cy="174" r="6"/><circle cx="130" cy="117" r="6"/>
      <circle cx="140" cy="178" r="6"/><circle cx="145" cy="135" r="6"/><circle cx="155" cy="104" r="6"/><circle cx="164" cy="157" r="6"/>
      <circle cx="174" cy="121" r="6"/><circle cx="187" cy="88" r="6"/><circle cx="191" cy="153" r="6"/>
    </g>
    <text x="108" y="274" text-anchor="middle" font-family="Arial, Helvetica, sans-serif" font-size="32" fill="#050505">
      <tspan x="108" dy="0">Supervised</tspan>
      <tspan x="108" dy="35">Learning</tspan>
    </text>
  </g>

  <g transform="translate(661 240)">
    <rect width="216" height="216" fill="#888888"/>
    <g fill="none" stroke="#ffd83d" stroke-width="4">
      <path d="M47 110 H111 V160"/>
      <path d="M47 50 H111 V111"/>
      <path d="M111 50 H166"/>
      <path d="M111 111 H158"/>
      <path d="M47 50 V171 H111"/>
      <path d="M174 50 V166 H111"/>
    </g>
    <path d="M174 50 L145 35 L154 50 L145 65 Z" fill="#ffd83d"/>
    <path d="M166 111 L137 96 L146 111 L137 126 Z" fill="#ffd83d"/>
    <path d="M111 168 L96 139 H126 Z" fill="#ffd83d"/>
    <circle cx="44" cy="58" r="22" fill="#6bd3cd"/>
    <circle cx="111" cy="113" r="22" fill="#ffd83d"/>
    <circle cx="174" cy="82" r="15" fill="#6bd3cd"/>
    <circle cx="170" cy="165" r="22" fill="#ff7f5f"/>
    <g stroke="#888888" stroke-width="5" fill="none" stroke-linecap="round" stroke-linejoin="round">
      <circle cx="44" cy="58" r="8"/><path d="M44 42 V48M44 68 V74M28 58 H34M54 58 H60M33 47 L37 51M51 65 L55 69M55 47 L51 51M37 65 L33 69"/>
      <circle cx="111" cy="113" r="8"/><path d="M111 97 V103M111 123 V129M95 113 H101M121 113 H127M100 102 L104 106M118 120 L122 124M122 102 L118 106M104 120 L100 124"/>
      <circle cx="174" cy="82" r="6"/><path d="M174 70 V75M174 89 V94M162 82 H167M181 82 H186M166 74 L169 77M179 87 L182 90M182 74 L179 77M169 87 L166 90"/>
      <path d="M170 153 C160 153 156 166 165 173 H175 C184 166 180 153 170 153 ZM164 178 H176M166 185 H174"/>
    </g>
    <text x="108" y="274" text-anchor="middle" font-family="Arial, Helvetica, sans-serif" font-size="32" fill="#050505">
      <tspan x="108" dy="0">Reinforcement</tspan>
      <tspan x="108" dy="35">Learning</tspan>
    </text>
  </g>
</svg>
